<svg width="56" height="55" viewBox="0 0 56 55" fill="none" xmlns="http://www.w3.org/2000/svg">
<rect x="0.5" width="55" height="55" rx="27" fill="black"/>
<path d="M40.1458 41.25C36.8611 41.25 33.6594 40.5177 30.5407 39.0531C27.422 37.5884 24.6593 35.6532 22.2525 33.2475C19.8457 30.8418 17.9106 28.079 16.4469 24.9593C14.9833 21.8396 14.251 18.6379 14.25 15.3542C14.25 14.8958 14.4028 14.5139 14.7083 14.2083C15.0139 13.9028 15.3958 13.75 15.8542 13.75H22.0417C22.3981 13.75 22.7164 13.8646 22.9965 14.0938C23.2766 14.3229 23.4421 14.6157 23.4931 14.9722L24.4861 20.3194C24.537 20.6759 24.5304 21.0008 24.4663 21.2942C24.4021 21.5875 24.2559 21.8482 24.0278 22.0764L20.3611 25.8194C21.4306 27.6528 22.7674 29.3715 24.3715 30.9757C25.9757 32.5799 27.7454 33.9676 29.6806 35.1389L33.2708 31.5486C33.5 31.3194 33.7994 31.1478 34.1692 31.0338C34.5389 30.9197 34.9015 30.8876 35.2569 30.9375L40.5278 32.0069C40.8843 32.0833 41.1771 32.2555 41.4062 32.5233C41.6354 32.7912 41.75 33.1029 41.75 33.4583V39.6458C41.75 40.1042 41.5972 40.4861 41.2917 40.7917C40.9861 41.0972 40.6042 41.25 40.1458 41.25Z" fill="white"/>
</svg>
