<svg width="56" height="55" viewBox="0 0 56 55" fill="none" xmlns="http://www.w3.org/2000/svg">
<rect x="0.5" width="55" height="55" rx="27" fill="black"/>
<path d="M27.9997 29.3C31.1063 29.3 33.6247 26.8823 33.6247 23.9C33.6247 20.9177 31.1063 18.5 27.9997 18.5C24.8931 18.5 22.3747 20.9177 22.3747 23.9C22.3747 26.8823 24.8931 29.3 27.9997 29.3Z" stroke="white" stroke-width="2" stroke-linecap="round" stroke-linejoin="round"/>
<path d="M28 9.5C24.0218 9.5 20.2064 11.0171 17.3934 13.7177C14.5804 16.4182 13 20.0809 13 23.9C13 27.3056 13.7538 29.534 15.8125 32L28 45.5L40.1875 32C42.2463 29.534 43 27.3056 43 23.9C43 20.0809 41.4197 16.4182 38.6066 13.7177C35.7936 11.0171 31.9783 9.5 28 9.5Z" stroke="white" stroke-width="2" stroke-linecap="round" stroke-linejoin="round"/>
</svg>
