<svg width="70" height="55" viewBox="0 0 70 55" fill="none" xmlns="http://www.w3.org/2000/svg">
<rect x="7.5" width="55" height="55" rx="27" fill="black"/>
<path d="M50.3125 13.75H19.6875C19.1073 13.75 18.5509 13.9914 18.1407 14.4212C17.7305 14.851 17.5 15.4339 17.5 16.0417V38.9583C17.5 39.5661 17.7305 40.149 18.1407 40.5788C18.5509 41.0086 19.1073 41.25 19.6875 41.25H50.3125C50.8927 41.25 51.4491 41.0086 51.8593 40.5788C52.2695 40.149 52.5 39.5661 52.5 38.9583V16.0417C52.5 15.4339 52.2695 14.851 51.8593 14.4212C51.4491 13.9914 50.8927 13.75 50.3125 13.75ZM48.6281 38.9583H21.5031L29.1594 30.6625L27.5844 29.0698L19.6875 37.6292V17.7833L33.2828 31.9573C33.6927 32.3841 34.2471 32.6237 34.825 32.6237C35.4029 32.6237 35.9573 32.3841 36.3672 31.9573L50.3125 17.4281V37.4802L42.2625 29.0469L40.7203 30.6625L48.6281 38.9583ZM21.1203 16.0417H48.5406L34.825 30.3302L21.1203 16.0417Z" fill="white"/>
</svg>
