<svg width="265" height="48" viewBox="0 0 265 48" fill="none" xmlns="http://www.w3.org/2000/svg">
<path d="M48.5 24C48.5 37.2548 37.7548 48 24.5 48C11.2452 48 0.5 37.2548 0.5 24C0.5 10.7452 11.2452 0 24.5 0C37.7548 0 48.5 10.7452 48.5 24Z" fill="#090000"/>
<path d="M39.7 24C39.7027 26.1075 39.2878 28.1946 38.4791 30.1407C37.6705 32.0868 36.4842 33.8534 34.9888 35.3384C33.5057 36.819 31.7453 37.9927 29.8083 38.7926C27.8713 39.5924 25.7957 40.0027 23.7 40C14.8632 40 7.70003 32.8368 7.70003 24C7.69443 19.8974 9.27032 15.9505 12.1 12.98C13.5931 11.4045 15.392 10.1502 17.3865 9.29392C19.3811 8.43763 21.5294 7.99735 23.7 8.00001C25.7957 7.9973 27.8713 8.4076 29.8083 9.20746C31.7453 10.0073 33.5057 11.1811 34.9888 12.6616M39.7 24C39.7027 21.8926 39.2878 19.8055 38.4791 17.8593C37.6705 15.9132 36.4842 14.1466 34.9888 12.6616M39.7 24C37.3656 24 30.9256 23.12 25.1616 25.6504C18.9 28.4 14.3664 32.6648 12.3904 35.3176M39.7 24C39.7 25.9696 39.344 27.8568 38.692 29.6M34.9888 12.6616C33.5799 11.2578 31.9221 10.1284 30.1 9.33121M17.7 9.16321C20.204 11.4744 25.668 17.3584 27.7 23.2C29.732 29.0416 30.484 36.224 30.948 38.268M7.82323 22C10.8456 22.1824 18.8464 22.3464 23.9664 20.16C29.0864 17.9736 33.492 13.952 35.0032 12.676M8.90003 30.0904C10.3099 33.5031 12.8526 36.3258 16.1 38.0832" stroke="white" stroke-width="4" stroke-linecap="round" stroke-linejoin="round"/>
<path d="M120.5 24C120.5 37.2548 109.755 48 96.5 48C83.2452 48 72.5 37.2548 72.5 24C72.5 10.7452 83.2452 0 96.5 0C109.755 0 120.5 10.7452 120.5 24Z" fill="#090000"/>
<path fill-rule="evenodd" clip-rule="evenodd" d="M83.1667 24C83.1669 21.4341 83.9075 18.9227 85.2996 16.7673C86.6918 14.6119 88.6763 12.9039 91.015 11.8484C93.3538 10.7928 95.9474 10.4345 98.4847 10.8165C101.022 11.1984 103.395 12.3044 105.32 14.0017C107.244 15.6989 108.638 17.9154 109.334 20.3852C110.03 22.8549 109.998 25.473 109.243 27.9253C108.488 30.3776 107.041 32.5599 105.076 34.2103C103.112 35.8608 100.712 36.9093 98.1667 37.23V27.3333H101.5C101.942 27.3333 102.366 27.1577 102.679 26.8452C102.991 26.5326 103.167 26.1087 103.167 25.6667C103.167 25.2246 102.991 24.8007 102.679 24.4882C102.366 24.1756 101.942 24 101.5 24H98.1667V20.6667C98.1667 20.2246 98.3423 19.8007 98.6548 19.4882C98.9674 19.1756 99.3913 19 99.8333 19H100.667C101.109 19 101.533 18.8244 101.845 18.5118C102.158 18.1993 102.333 17.7754 102.333 17.3333C102.333 16.8913 102.158 16.4674 101.845 16.1548C101.533 15.8423 101.109 15.6667 100.667 15.6667H99.8333C98.5072 15.6667 97.2355 16.1935 96.2978 17.1311C95.3601 18.0688 94.8333 19.3406 94.8333 20.6667V24H91.5C91.058 24 90.6341 24.1756 90.3215 24.4882C90.0089 24.8007 89.8333 25.2246 89.8333 25.6667C89.8333 26.1087 90.0089 26.5326 90.3215 26.8452C90.6341 27.1577 91.058 27.3333 91.5 27.3333H94.8333V37.23C91.6112 36.8237 88.648 35.2554 86.5 32.8196C84.352 30.3837 83.1667 27.2477 83.1667 24ZM96.5 40.6667C105.705 40.6667 113.167 33.205 113.167 24C113.167 14.795 105.705 7.33333 96.5 7.33333C87.295 7.33333 79.8333 14.795 79.8333 24C79.8333 33.205 87.295 40.6667 96.5 40.6667Z" fill="white"/>
<path d="M192.5 24C192.5 37.2548 181.755 48 168.5 48C155.245 48 144.5 37.2548 144.5 24C144.5 10.7452 155.245 0 168.5 0C181.755 0 192.5 10.7452 192.5 24Z" fill="#090000"/>
<path d="M184.5 13.9884C183.302 14.6041 182.032 15.0086 180.731 15.1885C182.101 14.2348 183.127 12.7349 183.616 10.968C182.329 11.8581 180.918 12.4818 179.448 12.8193C178.46 11.591 177.15 10.7765 175.723 10.5022C174.295 10.2279 172.83 10.5093 171.554 11.3026C170.278 12.0959 169.264 13.3567 168.668 14.889C168.073 16.4212 167.93 18.1391 168.261 19.7755C165.651 19.6237 163.096 18.8357 160.765 17.4626C158.433 16.0894 156.376 14.1619 154.728 11.8052C154.144 12.9696 153.837 14.2934 153.839 15.6408C153.839 18.2854 154.999 20.6217 156.759 21.9896C155.717 21.9515 154.697 21.6244 153.786 21.0358V21.1288C153.786 22.8904 154.31 24.5978 155.27 25.9614C156.23 27.325 157.566 28.2609 159.053 28.6103C158.085 28.9152 157.07 28.9601 156.086 28.7416C156.505 30.2579 157.321 31.584 158.422 32.5341C159.522 33.4842 160.85 34.0107 162.221 34.0399C160.858 35.2828 159.299 36.2015 157.631 36.7435C155.963 37.2856 154.219 37.4403 152.5 37.1988C155.501 39.4411 158.995 40.6315 162.563 40.6277C174.641 40.6277 181.244 29.0042 181.244 18.9237C181.244 18.5954 181.238 18.2635 181.225 17.937C182.51 16.8579 183.619 15.5196 184.5 13.9884Z" fill="white"/>
<path d="M264.5 24C264.5 37.2548 253.755 48 240.5 48C227.245 48 216.5 37.2548 216.5 24C216.5 10.7452 227.245 0 240.5 0C253.755 0 264.5 10.7452 264.5 24Z" fill="#090000"/>
<path d="M231.216 11.3601C231.215 12.2508 230.861 13.1049 230.231 13.7344C229.601 14.3639 228.747 14.7173 227.856 14.7169C226.966 14.7165 226.112 14.3622 225.482 13.732C224.853 13.1019 224.5 12.2475 224.5 11.3568C224.5 10.4661 224.855 9.612 225.485 8.98248C226.115 8.35296 226.969 7.99956 227.859 8C228.75 8.00045 229.604 8.35471 230.233 8.98485C230.863 9.615 231.216 10.4694 231.216 11.3601ZM231.316 17.2038H224.601V38.2277H231.316V17.2038ZM241.927 17.2038H235.245V38.2277H241.86V27.1952C241.86 21.0493 249.868 20.4783 249.868 27.1952V38.2277H256.5V24.9115C256.5 14.5507 244.647 14.9369 241.86 20.0249L241.927 17.2038Z" fill="white"/>
</svg>
